<?xml version="1.0" encoding="UTF-8" standalone="no"?>
<svg width="29px" height="17px" viewBox="0 0 29 17" version="1.1" xmlns="http://www.w3.org/2000/svg" xmlns:xlink="http://www.w3.org/1999/xlink">
    <!-- Generator: Sketch 3.6.1 (26313) - http://www.bohemiancoding.com/sketch -->
    <title>Combined Shape</title>
    <desc>Created with Sketch.</desc>
    <defs></defs>
    <g id="Page-1" stroke="none" stroke-width="1" fill="none" fill-rule="evenodd">
        <g id="Artboard-1-Copy-3" transform="translate(-109.000000, -92.000000)" fill="#D8D8D8">
            <g id="TABS" transform="translate(0.000000, 80.000000)">
                <g id="LIST-TAB" transform="translate(109.000000, 12.000000)">
                    <path d="M5,1.5 C5,0.671572875 5.67142277,0 6.49124761,0 L26.7819599,0 C27.6055532,0 28.2732075,0.665797234 28.2732075,1.5 C28.2732075,2.32842712 27.6017848,3 26.7819599,3 L6.49124761,3 C5.66765429,3 5,2.33420277 5,1.5 Z M0,1.5 C0,0.671572875 0.665797234,0 1.5,0 C2.32842712,0 3,0.665797234 3,1.5 C3,2.32842712 2.33420277,3 1.5,3 C0.671572875,3 0,2.33420277 0,1.5 Z M5,8.5 C5,7.67157288 5.67142277,7 6.49124761,7 L26.7819599,7 C27.6055532,7 28.2732075,7.66579723 28.2732075,8.5 C28.2732075,9.32842712 27.6017848,10 26.7819599,10 L6.49124761,10 C5.66765429,10 5,9.33420277 5,8.5 Z M0,8.5 C0,7.67157288 0.665797234,7 1.5,7 C2.32842712,7 3,7.66579723 3,8.5 C3,9.32842712 2.33420277,10 1.5,10 C0.671572875,10 0,9.33420277 0,8.5 Z M5,15.5 C5,14.6715729 5.67142277,14 6.49124761,14 L26.7819599,14 C27.6055532,14 28.2732075,14.6657972 28.2732075,15.5 C28.2732075,16.3284271 27.6017848,17 26.7819599,17 L6.49124761,17 C5.66765429,17 5,16.3342028 5,15.5 Z M0,15.5 C0,14.6715729 0.665797234,14 1.5,14 C2.32842712,14 3,14.6657972 3,15.5 C3,16.3284271 2.33420277,17 1.5,17 C0.671572875,17 0,16.3342028 0,15.5 Z" id="Combined-Shape"></path>
                </g>
            </g>
        </g>
    </g>
</svg>
